<?xml version="1.0" encoding="UTF-8" standalone="no"?>
<!-- Created with Inkscape (http://www.inkscape.org/) -->

<svg
   xmlns:dc="http://purl.org/dc/elements/1.1/"
   xmlns:cc="http://creativecommons.org/ns#"
   xmlns:rdf="http://www.w3.org/1999/02/22-rdf-syntax-ns#"
   xmlns:svg="http://www.w3.org/2000/svg"
   xmlns="http://www.w3.org/2000/svg"
   xmlns:sodipodi="http://sodipodi.sourceforge.net/DTD/sodipodi-0.dtd"
   xmlns:inkscape="http://www.inkscape.org/namespaces/inkscape"
   width="1080"
   height="1080"
   id="svg17570"
   sodipodi:version="0.32"
   inkscape:version="0.47 r22583"
   sodipodi:docname="SoccerBall.svg"
   inkscape:output_extension="org.inkscape.output.svg.inkscape"
   version="1.1">
  <defs
     id="defs17572">
    <inkscape:perspective
       sodipodi:type="inkscape:persp3d"
       inkscape:vp_x="0 : 526.18109 : 1"
       inkscape:vp_y="0 : 1000 : 0"
       inkscape:vp_z="744.09448 : 526.18109 : 1"
       inkscape:persp3d-origin="372.04724 : 350.78739 : 1"
       id="perspective17578" />
  </defs>
  <sodipodi:namedview
     id="base"
     pagecolor="#ffffff"
     bordercolor="#666666"
     borderopacity="1.0"
     gridtolerance="10000"
     guidetolerance="10"
     objecttolerance="10"
     inkscape:pageopacity="0.0"
     inkscape:pageshadow="2"
     inkscape:zoom="0.35"
     inkscape:cx="375"
     inkscape:cy="520"
     inkscape:document-units="px"
     inkscape:current-layer="layer1"
     showgrid="false"
     inkscape:window-width="1280"
     inkscape:window-height="1002"
     inkscape:window-x="1213"
     inkscape:window-y="111"
     units="in"
     inkscape:window-maximized="0" />
  <metadata
     id="metadata17575">
    <rdf:RDF>
      <cc:Work
         rdf:about="">
        <dc:format>image/svg+xml</dc:format>
        <dc:type
           rdf:resource="http://purl.org/dc/dcmitype/StillImage" />
      </cc:Work>
    </rdf:RDF>
  </metadata>
  <g
     inkscape:label="Layer 1"
     inkscape:groupmode="layer"
     id="layer1"
     transform="translate(0,27.64025)">
    <path
       style="fill:#000000"
       d="M 235.61689,485.47703 C 196.8415,482.22242 158.6953,469.30673 129.10382,449.41372 109.97519,436.5543 84.710229,414.5688 71.406309,399.20556 30.198509,351.6192 11.007009,301.03979 11.756109,241.99654 12.579289,177.11449 34.151089,120.73348 76.293569,73.318034 114.00447,30.889074 165.2358,3.6061843 219.5554,-2.9748957 c 16.67415,-2.02002 56.93455,-1.9828 71.85405,0.0664 35.52787,4.88025 73.01919,19.7303797 101.40673,40.1674097 29.23799,21.04896 59.14487,55.47365 77.07912,88.722356 33.86965,62.79217 39.95113,140.80782 15.94739,204.57982 -21.87149,58.10731 -71.03414,109.57665 -130.35952,136.47604 -31.86614,14.44883 -79.71622,21.80989 -119.86628,18.43989 z"
       id="path17532" />
    <path
       id="path17535"
       style="fill:#00ff00"
       d="m 828.8323,1031.0421 c 9.43641,-1.1175 30.48985,-5.5097 31.56542,-6.5852 0.43774,-0.4376 -4.77359,-2.1102 -11.58073,-3.7163 -24.54942,-5.7929 -75.25017,-4.9428 -93.83229,1.573 l -6.45988,2.2654 6.76273,1.917 c 20.20052,5.727 48.69656,7.4883 73.54475,4.5461 z m -74.99775,-19.2009 7.00044,-3.6014 -2.20657,-11.47227 c -3.14109,-16.33086 -8.78893,-35.92035 -11.19055,-38.81412 -1.12647,-1.35729 -4.38599,-3.64012 -7.24335,-5.07282 -10.21738,-5.12276 -24.09041,-15.11165 -42.99168,-30.95477 -10.55944,-8.85078 -21.21074,-17.46768 -23.66957,-19.1486 -5.86138,-4.00691 -14.56926,-2.99458 -36.59358,4.25433 l -16.90685,5.56439 0.42894,14.8897 c 0.47947,16.64375 1.86543,20.27009 12.25261,32.05827 17.47825,19.83562 57.59857,46.58919 81.9371,54.63829 10.07638,3.3323 30.53068,2.1102 39.18306,-2.341 z m 152.4827,-3.7699 c 29.73912,-13.8195 71.42932,-47.70198 87.75912,-71.32403 8.58283,-12.41555 18.70363,-34.35025 16.75053,-36.30345 -0.5594,-0.55938 -4.6477,-1.32811 -9.085,-1.70812 -8.88765,-0.76132 -8.31429,-1.11042 -52.87106,32.21026 -9.76371,7.30157 -23.35841,16.35874 -30.21044,20.12736 -10.26472,5.6455 -14.72996,9.59591 -25.36026,22.4366 -17.6828,21.35986 -25.8726,33.57618 -24.64832,36.76668 1.4259,3.7158 12.11289,5.9461 20.19975,4.2156 3.71949,-0.7959 11.57907,-3.6853 17.46568,-6.4209 z m 24.09387,-74.24536 c 28.10137,-18.72891 50.32267,-36.47176 54.32152,-43.37379 3.25749,-5.62238 7.21545,-30.3792 9.05188,-56.61866 l 1.1343,-16.20743 -7.48728,-6.13515 c -14.96086,-12.25924 -63.11026,-38.37632 -70.75072,-38.37632 -6.28131,0 -42.45115,23.62687 -58.76787,38.38818 l -8.9597,8.10573 -6.49587,38.88569 c -9.53347,57.06945 -9.44813,55.32794 -2.95046,60.20378 13.82331,10.37279 33.31482,20.81222 51.88068,27.78657 11.78072,4.42561 14.91543,3.40858 39.02352,-12.6586 z m -152.69677,6.51862 c 10.85415,-3.5822 30.9915,-13.32899 36.988,-17.90288 3.2317,-2.46474 6.88451,-6.44939 8.11735,-8.85442 3.1738,-6.19122 6.75682,-24.76838 11.9304,-61.85584 l 4.48106,-32.12292 -9.00347,-8.11537 c -15.17144,-13.67475 -37.21617,-29.78112 -47.8892,-34.98912 -9.11577,-4.44811 -10.96148,-4.78961 -18.2071,-3.36921 -8.43645,1.65367 -41.51769,17.84787 -64.6364,31.64136 l -13.52547,8.06956 -3.80831,15.17675 c -4.7562,18.95408 -8.13709,48.6687 -6.51277,57.23979 2.9732,15.68884 50.54587,53.52716 73.30607,58.30626 6.72566,1.41218 18.81996,0.0565 28.75984,-3.22396 z M 602.85154,898.32484 c -13.65514,-27.92978 -22.21704,-54.58757 -25.14606,-78.29381 -0.82801,-6.7014 -1.57692,-8.03056 -4.52474,-8.03056 -3.41791,0 -3.50021,0.56216 -2.5367,17.32947 1.48814,25.89703 11.97751,55.46757 31.12139,87.73482 l 8.12332,13.69169 0.84535,-7.28995 c 0.72739,-6.27299 -0.37244,-9.78078 -7.88256,-25.14166 z m -1.83787,-120.8234 21.1795,-25.19994 2.94854,-13.64669 c 4.82258,-22.32027 12.15746,-42.79662 23.85399,-66.5918 6.06532,-12.33916 10.77923,-23.00184 10.47537,-23.69473 -0.30387,-0.69308 -3.21533,-5.67263 -6.46988,-11.06575 -5.50321,-9.11935 -6.26996,-9.73634 -10.95423,-8.81549 -21.12964,4.15302 -64.7683,84.21937 -71.91571,131.9475 -1.84843,12.34306 -1.11872,38.20103 1.18312,41.92558 2.86027,4.62785 9.797,-1.17816 29.6993,-24.85868 z m 401.11373,24.75163 c 4.199,-3.08495 13.2363,-16.55567 20.2452,-30.17689 9.5626,-18.58372 9.7396,-23.99774 1.6565,-50.66462 -9.658,-31.86264 -20.71,-52.5411 -41.55707,-77.75328 -14.03073,-16.96868 -28.06072,-26.52849 -43.04022,-29.32688 -9.35611,-1.74781 -9.74389,-1.40958 -25.99795,22.68328 -13.62208,20.1914 -18.66491,29.71492 -18.66491,35.24916 0,4.60695 23.70602,79.30218 27.4143,86.37981 2.67291,5.10126 18.59318,15.339 51.2025,32.92597 21.73992,11.72495 25.44793,13.10326 28.74165,10.68345 z M 705.87258,791.52851 c 7.65084,-3.82036 24.71785,-13.02995 37.92672,-20.46559 l 24.0161,-13.51942 5.20339,-17.15201 c 2.86186,-9.43378 7.52348,-23.2384 10.35916,-30.67737 9.7564,-25.59466 9.96022,-32.03046 1.4399,-45.46564 -7.57779,-11.94889 -24.34418,-31.93515 -34.82955,-41.51819 -8.90285,-8.13669 -10.10178,-8.72302 -15.69311,-7.67392 -13.69257,2.56858 -40.13976,15.88237 -52.86572,26.61323 -15.68803,13.22818 -25.50553,31.85788 -40.26216,76.40112 -6.63654,20.03262 -6.72002,24.03989 -0.7143,34.28802 9.09348,15.517 41.75575,46.11618 49.22527,46.11618 1.25604,0 8.54347,-3.12598 16.1943,-6.94641 z M 840.75179,664.92753 c 45.66776,-3.36223 44.25846,-3.13452 49.29402,-7.95899 10.79533,-10.34251 30.07374,-43.67895 30.07979,-52.01412 0.008,-11.6794 -29.69599,-31.50006 -59.17031,-39.48266 -25.69232,-6.9584 -62.48987,-9.26584 -73.61694,-4.6166 -12.36871,5.16776 -32.48276,28.27333 -36.35262,41.75907 -1.36166,4.74504 -1.02643,6.47764 2.07629,10.7308 4.23803,5.80935 24.79998,28.84594 38.72739,43.38826 10.92761,11.41028 9.20197,11.12138 48.96238,8.19424 z" />
  </g>
</svg>
