<?xml version="1.0" encoding="UTF-8"?>
<svg id="Sphere_wireframe_10deg_10r"
   baseProfile="full" version="1.1"
   xmlns="http://www.w3.org/2000/svg"
   xmlns:xlink="http://www.w3.org/1999/xlink"
   width="800" height="800">

  <title>Sphere wireframe</title>

  <desc>
     Sphere wireframe
     depicted with perspective projection

     viewer distance from center: 10r
     line distancd: 10°
     line width: 2°
     axial tilt: 37.5°
     rotation: 7.5°
     base color: #22326b

     plotted with several adapted cubic bezier-curves
     The plotcurves were calculated by some fancy python code. The bezier-curve
     controlpoints are placed on tangents of the function-curve. They are
     furthermore positioned in a way to minimize the average quadratic distance
     between the bezier-curve and the function. This gives an accuracy, so that
     the deviation is in no point greater than 0.00001.

     about: http://commons.wikimedia.org/wiki/Image:Sphere_wireframe_10deg_10r.svg
     source: http://commons.wikimedia.org/
     rights: GNU Free Documentation license,
             Creative Commons Attribution ShareAlike license
  </desc>

  <defs>
    <radialGradient cx="-0.1" cy="0.1" r="1.2" fx="-0.3" fy="0.6" id="LightSpot_front" gradientUnits="userSpaceOnUse">
      <stop style="stop-color:#b6bbce; stop-opacity:1" offset="0" />
      <stop style="stop-color:#8a94ba; stop-opacity:1" offset="0.1" />
      <stop style="stop-color:#5f6c99; stop-opacity:1" offset="0.3" />
      <stop style="stop-color:#22326b; stop-opacity:1" offset="1" />
    </radialGradient>

    <radialGradient cx="0.1" cy="-0.1" r="1.2" fx="0.3" fy="-0.6" id="LightSpot_back" gradientUnits="userSpaceOnUse">
      <stop style="stop-color:#b6bbce; stop-opacity:1" offset="0" />
      <stop style="stop-color:#8a94ba; stop-opacity:1" offset="0.1" />
      <stop style="stop-color:#5f6c99; stop-opacity:1" offset="0.3" />
      <stop style="stop-color:#22326b; stop-opacity:1" offset="1" />
    </radialGradient>
  </defs>

  <g id="sphere" style="fill:#334070; stroke:none" transform="translate(400, 400) scale(400, -400)">
    <g id="back" style="opacity:0.2; fill:url(#LightSpot_back)">
      <path d="M 0.00668,-0.63243
C 0.06232,-0.63403 0.11239,-0.65545 0.13782,-0.68850
C 0.16249,-0.72056 0.16036,-0.75889 0.13220,-0.78965
C 0.10282,-0.82173 0.04963,-0.84065 -0.00668,-0.83903
C -0.06289,-0.83741 -0.11337,-0.81558 -0.13854,-0.78202
C -0.16269,-0.74983 -0.16001,-0.71156 -0.13146,-0.68101
C -0.10191,-0.64940 -0.04913,-0.63082 0.00668,-0.63243 Z
M 0.00736,-0.61983
C -0.05426,-0.61806 -0.11253,-0.63856 -0.14516,-0.67346
C -0.17668,-0.70716 -0.17966,-0.74938 -0.15305,-0.78491
C -0.12528,-0.82200 -0.06952,-0.84614 -0.00741,-0.84793
C 0.05485,-0.84973 0.11365,-0.82880 0.14608,-0.79332
C 0.17711,-0.75936 0.17942,-0.71707 0.15218,-0.68170
C 0.12409,-0.64523 0.06880,-0.62159 0.00736,-0.61983 Z" id="parallel_-80.0_back"/>
      <path d="M 0.01337,-0.50017
C 0.11007,-0.50291 0.19947,-0.53514 0.25570,-0.58751
C 0.31059,-0.63863 0.32798,-0.70346 0.30309,-0.76404
C 0.27812,-0.82482 0.21323,-0.87487 0.12648,-0.90025
C 0.03666,-0.92652 -0.06648,-0.92337 -0.15230,-0.89173
C -0.23454,-0.86142 -0.29203,-0.80821 -0.30903,-0.74674
C -0.32606,-0.68513 -0.30063,-0.62168 -0.23975,-0.57388
C -0.17704,-0.52464 -0.08360,-0.49742 0.01337,-0.50017 Z
M 0.01401,-0.48624
C -0.08774,-0.48337 -0.18579,-0.51191 -0.25161,-0.56356
C -0.31550,-0.61369 -0.34220,-0.68024 -0.32434,-0.74486
C -0.30653,-0.80933 -0.24624,-0.86514 -0.15998,-0.89696
C -0.06992,-0.93017 0.03834,-0.93351 0.13264,-0.90597
C 0.22370,-0.87937 0.29182,-0.82688 0.31807,-0.76314
C 0.34425,-0.69956 0.32599,-0.63149 0.26833,-0.57783
C 0.20931,-0.52291 0.11549,-0.48911 0.01401,-0.48624 Z" id="parallel_-70.0_back"/>
      <path d="M 0.01957,-0.35627
C 0.16289,-0.36026 0.29543,-0.40771 0.37881,-0.48486
C 0.45983,-0.55981 0.48582,-0.65482 0.44968,-0.74377
C 0.41322,-0.83351 0.31738,-0.90760 0.18888,-0.94531
C 0.05581,-0.98436 -0.09724,-0.98000 -0.22474,-0.93354
C -0.34753,-0.88879 -0.43328,-0.80984 -0.45820,-0.71865
C -0.48290,-0.62826 -0.44528,-0.53527 -0.35557,-0.46511
C -0.26269,-0.39246 -0.12420,-0.35228 0.01957,-0.35627 Z
M 0.02016,-0.34138
C -0.12810,-0.33727 -0.27091,-0.37868 -0.36669,-0.45354
C -0.45915,-0.52580 -0.49796,-0.62157 -0.47257,-0.71466
C -0.44692,-0.80870 -0.35848,-0.89012 -0.23180,-0.93626
C -0.10029,-0.98416 0.05759,-0.98865 0.19484,-0.94839
C 0.32745,-0.90948 0.42632,-0.83304 0.46383,-0.74047
C 0.50096,-0.64885 0.47412,-0.55103 0.39062,-0.47386
C 0.30462,-0.39437 0.16794,-0.34549 0.02016,-0.34138 Z" id="parallel_-60.0_back"/>
      <path d="M 0.02516,-0.20429
C 0.21123,-0.20937 0.38338,-0.27037 0.49186,-0.36962
C 0.59662,-0.46547 0.63097,-0.58692 0.58564,-0.70101
C 0.53924,-0.81779 0.41433,-0.91442 0.24619,-0.96354
C 0.07306,-1.01410 -0.12623,-1.00855 -0.29219,-0.94853
C -0.45272,-0.89049 -0.56446,-0.78784 -0.59611,-0.66945
C -0.62709,-0.55352 -0.57803,-0.43450 -0.46211,-0.34459
C -0.34145,-0.25100 -0.16159,-0.19920 0.02516,-0.20429 Z
M 0.02568,-0.18879
C -0.16511,-0.18359 -0.34887,-0.23646 -0.47215,-0.33199
C -0.59052,-0.42371 -0.64067,-0.54512 -0.60912,-0.66340
C -0.57687,-0.78435 -0.46263,-0.88923 -0.29849,-0.94852
C -0.12890,-1.00977 0.07474,-1.01542 0.25164,-0.96378
C 0.42352,-0.91360 0.55116,-0.81487 0.59847,-0.69557
C 0.64464,-0.57916 0.60950,-0.45528 0.50250,-0.35750
C 0.39165,-0.25621 0.21578,-0.19396 0.02568,-0.18879 Z" id="parallel_-50.0_back"/>
      <path d="M -0.43619,-0.89985
C -0.59972,-0.82059 -0.70456,-0.70045 -0.72528,-0.56869
C -0.74573,-0.43863 -0.68239,-0.30884 -0.55024,-0.21014
C -0.41179,-0.10674 -0.21107,-0.04734 0.00001,-0.04735
C 0.21109,-0.04735 0.41181,-0.10675 0.55025,-0.21015
C 0.68240,-0.30885 0.74573,-0.43864 0.72528,-0.56870
C 0.70455,-0.70046 0.59971,-0.82059 0.43619,-0.89985
C 0.44741,-0.89442 0.45852,-0.88877 0.46953,-0.88292
C 0.62649,-0.79945 0.72370,-0.67785 0.73846,-0.54661
C 0.75308,-0.41668 0.68563,-0.28845 0.55156,-0.19138
C 0.41112,-0.08970 0.21053,-0.03157 -0.00001,-0.03157
C -0.21055,-0.03157 -0.41114,-0.08970 -0.55157,-0.19139
C -0.68564,-0.28846 -0.75308,-0.41669 -0.73846,-0.54662
C -0.72369,-0.67786 -0.62648,-0.79945 -0.46953,-0.88292
C -0.45852,-0.88877 -0.44741,-0.89442 -0.43619,-0.89985 Z" id="parallel_-40.0_back"/>
      <path d="M -0.69389,-0.72008
C -0.82675,-0.59205 -0.86713,-0.43353 -0.80476,-0.28507
C -0.74178,-0.13517 -0.58019,-0.01018 -0.36200,0.05727
C -0.13328,0.12798 0.13328,0.12798 0.36200,0.05727
C 0.58019,-0.01018 0.74178,-0.13517 0.80476,-0.28507
C 0.86713,-0.43353 0.82675,-0.59205 0.69389,-0.72008
C 0.70042,-0.71379 0.70687,-0.70740 0.71323,-0.70093
C 0.84071,-0.57121 0.87601,-0.41290 0.81035,-0.26554
C 0.74395,-0.11650 0.58061,0.00710 0.36194,0.07369
C 0.13295,0.14343 -0.13295,0.14343 -0.36194,0.07369
C -0.58061,0.00710 -0.74395,-0.11650 -0.81035,-0.26554
C -0.87601,-0.41290 -0.84071,-0.57121 -0.71323,-0.70093
C -0.70687,-0.70740 -0.70042,-0.71379 -0.69389,-0.72008 Z" id="parallel_-30.0_back"/>
      <path d="M -0.85370,-0.52077
C -0.93818,-0.38229 -0.93516,-0.22856 -0.84529,-0.09144
C -0.75368,0.04833 -0.57902,0.15987 -0.35875,0.21921
C -0.12957,0.28095 0.12957,0.28095 0.35875,0.21921
C 0.57902,0.15987 0.75368,0.04833 0.84529,-0.09144
C 0.93516,-0.22856 0.93818,-0.38229 0.85370,-0.52077
C 0.85789,-0.51389 0.86200,-0.50697 0.86603,-0.49999
C 0.94618,-0.36117 0.93960,-0.20828 0.84763,-0.07241
C 0.75380,0.06622 0.57831,0.17647 0.35814,0.23506
C 0.12915,0.29600 -0.12915,0.29600 -0.35814,0.23506
C -0.57831,0.17647 -0.75380,0.06622 -0.84763,-0.07241
C -0.93960,-0.20828 -0.94618,-0.36117 -0.86603,-0.49999
C -0.86202,-0.50694 -0.85791,-0.51387 -0.85370,-0.52077 Z" id="parallel_-20.0_back"/>
      <path d="M -0.95139,-0.30798
C -0.99597,-0.17027 -0.96193,-0.02719 -0.85511,0.09660
C -0.74509,0.22409 -0.56507,0.32279 -0.34783,0.37466
C -0.12392,0.42812 0.12390,0.42812 0.34781,0.37466
C 0.56506,0.32279 0.74509,0.22410 0.85511,0.09660
C 0.96193,-0.02718 0.99597,-0.17027 0.95139,-0.30798
C 0.95369,-0.30089 0.95595,-0.29363 0.95817,-0.28621
C 0.99915,-0.14900 0.96250,-0.00721 0.85440,0.11515
C 0.74300,0.24124 0.56288,0.33860 0.34632,0.38972
C 0.12324,0.44238 -0.12322,0.44239 -0.34631,0.38972
C -0.56287,0.33860 -0.74299,0.24125 -0.85440,0.11515
C -0.96250,-0.00720 -0.99915,-0.14900 -0.95817,-0.28621
C -0.95604,-0.29334 -0.95378,-0.30061 -0.95139,-0.30798 Z" id="parallel_-10.0_back"/>
      <path d="M -0.99611,-0.08817
C -1.01049,0.07428 -0.91804,0.23354 -0.73931,0.35413
C -0.54930,0.48234 -0.27905,0.55521 0.00406,0.55451
C 0.28432,0.55381 0.55119,0.48107 0.73933,0.35412
C 0.91805,0.23353 1.01048,0.07427 0.99611,-0.08817
C 0.99674,-0.08095 0.99732,-0.07358 0.99782,-0.06606
C 1.00848,0.09506 0.91402,0.25222 0.73510,0.37094
C 0.54508,0.49703 0.27677,0.56852 -0.00405,0.56782
C -0.28204,0.56714 -0.54700,0.49577 -0.73514,0.37092
C -0.91404,0.25220 -1.00848,0.09504 -0.99782,-0.06606
C -0.99732,-0.07358 -0.99674,-0.08095 -0.99611,-0.08817 Z" id="parallel_0.0_back"/>
      <path d="M -0.99125,0.13197
C -0.97186,0.27765 -0.86405,0.41402 -0.68827,0.51518
C -0.50312,0.62174 -0.25649,0.68123 0.00002,0.68123
C 0.25655,0.68122 0.50317,0.62172 0.68832,0.51515
C 0.86408,0.41399 0.97186,0.27763 0.99125,0.13197
C 0.99027,0.13937 0.98922,0.14663 0.98811,0.15374
C 0.96576,0.29741 0.85692,0.43133 0.68189,0.53049
C 0.49762,0.63487 0.25362,0.69304 0.00001,0.69305
C -0.25359,0.69305 -0.49760,0.63488 -0.68187,0.53050
C -0.85691,0.43134 -0.96576,0.29742 -0.98811,0.15374
C -0.98922,0.14663 -0.99027,0.13937 -0.99125,0.13197 Z" id="parallel_10.0_back"/>
      <path d="M -0.93832,0.34575
C -0.89294,0.46893 -0.77898,0.57966 -0.61455,0.66035
C -0.44200,0.74501 -0.22453,0.79137 0.00003,0.79137
C 0.22461,0.79136 0.44209,0.74499 0.61463,0.66031
C 0.77902,0.57963 0.89294,0.46891 0.93832,0.34575
C 0.93581,0.35258 0.93317,0.35951 0.93041,0.36653
C 0.88285,0.48724 0.76872,0.59532 0.60579,0.67391
C 0.43500,0.75631 0.22089,0.80134 -0.00003,0.80133
C -0.22097,0.80133 -0.43508,0.75628 -0.60587,0.67388
C -0.76876,0.59528 -0.88286,0.48722 -0.93041,0.36653
C -0.93307,0.35977 -0.93571,0.35284 -0.93832,0.34575 Z" id="parallel_20.0_back"/>
      <path d="M -0.83733,0.54669
C -0.75225,0.67701 -0.57987,0.78204 -0.35913,0.83796
C -0.13010,0.89598 0.13050,0.89594 0.35949,0.83787
C 0.58006,0.78192 0.75229,0.67694 0.83733,0.54669
C 0.83305,0.55325 0.82877,0.55964 0.82451,0.56584
C 0.73776,0.69225 0.56741,0.79359 0.35100,0.84742
C 0.12683,0.90319 -0.12728,0.90316 -0.35140,0.84732
C -0.56762,0.79346 -0.73782,0.69217 -0.82451,0.56584
C -0.82877,0.55964 -0.83305,0.55325 -0.83733,0.54669 Z" id="parallel_30.0_back"/>
      <path d="M -0.68486,0.72868
C -0.58997,0.81786 -0.44403,0.88583 -0.27147,0.92119
C -0.09572,0.95721 0.09668,0.95714 0.27236,0.92101
C 0.44454,0.88560 0.59013,0.81770 0.68486,0.72868
C 0.67877,0.73440 0.67261,0.74005 0.66638,0.74562
C 0.57147,0.83044 0.42902,0.89470 0.26193,0.92805
C 0.09208,0.96194 -0.09310,0.96188 -0.26287,0.92786
C -0.42956,0.89446 -0.57165,0.83027 -0.66638,0.74562
C -0.67261,0.74005 -0.67877,0.73440 -0.68486,0.72868 Z" id="parallel_40.0_back"/>
      <path d="M -0.46334,0.88618
C -0.33741,0.95202 -0.17136,0.98860 0.00108,0.98845
C 0.17275,0.98830 0.33794,0.95175 0.46334,0.88618
C 0.45400,0.89107 0.44457,0.89580 0.43508,0.90039
C 0.31402,0.95889 0.15921,0.99104 -0.00091,0.99092
C -0.16039,0.99080 -0.31448,0.95867 -0.43508,0.90039
C -0.44458,0.89580 -0.45400,0.89107 -0.46334,0.88618 Z" id="parallel_50.0_back"/>
      <path d="M -0.03882,-0.99925
C -0.02637,-0.99973 -0.00996,-0.81778 0.00445,-0.51904
C 0.01995,-0.19783 0.03061,0.20596 0.03205,0.52577
C 0.03338,0.82046 0.02666,0.99972 0.01432,0.99990
C 0.02016,0.99981 0.02601,0.99968 0.03186,0.99949
C 0.04372,0.99911 0.04986,0.81594 0.04804,0.51617
C 0.04608,0.19492 0.03530,-0.20792 0.02013,-0.52679
C 0.00612,-0.82120 -0.00954,-1.00002 -0.02128,-0.99977
C -0.02712,-0.99965 -0.03297,-0.99947 -0.03882,-0.99925 Z" id="meridian_80.01_back"/>
      <path d="M -0.15988,-0.98714
C -0.11744,-0.99401 -0.06408,-0.90937 -0.01015,-0.74934
C 0.05225,-0.56412 0.10978,-0.29471 0.14772,-0.00987
C 0.18541,0.27311 0.20016,0.54417 0.18827,0.73498
C 0.17814,0.89761 0.14941,0.98967 0.10752,0.99420
C 0.11339,0.99357 0.11929,0.99288 0.12520,0.99213
C 0.16738,0.98681 0.19583,0.89063 0.20497,0.72191
C 0.21555,0.52678 0.19935,0.25224 0.16050,-0.03193
C 0.12190,-0.31417 0.06464,-0.57894 0.00310,-0.75983
C -0.04939,-0.91410 -0.10106,-0.99575 -0.14228,-0.98983
C -0.14815,-0.98898 -0.15402,-0.98809 -0.15988,-0.98714 Z" id="meridian_80.02_back"/>
      <path d="M -0.28427,-0.95874
C -0.21006,-0.98075 -0.11474,-0.90900 -0.01756,-0.75779
C 0.09089,-0.58905 0.19206,-0.33634 0.26087,-0.06224
C 0.32911,0.20959 0.35921,0.47733 0.34385,0.67565
C 0.32997,0.85478 0.28007,0.96309 0.20432,0.97890
C 0.21033,0.97765 0.21633,0.97634 0.22231,0.97498
C 0.29634,0.95810 0.34510,0.85128 0.35893,0.67533
C 0.37461,0.47591 0.34405,0.20531 0.27483,-0.06924
C 0.20558,-0.34386 0.10415,-0.59667 -0.00424,-0.76484
C -0.09983,-0.91315 -0.19340,-0.98405 -0.26657,-0.96382
C -0.27249,-0.96218 -0.27839,-0.96049 -0.28427,-0.95874 Z" id="meridian_80.03_back"/>
      <path d="M -0.41419,-0.91019
C -0.31333,-0.95609 -0.17925,-0.90744 -0.04006,-0.77434
C 0.11155,-0.62935 0.25578,-0.39706 0.35711,-0.13456
C 0.45752,0.12557 0.50660,0.39154 0.49249,0.59897
C 0.47943,0.79106 0.41321,0.91735 0.30780,0.95145
C 0.31385,0.94949 0.31999,0.94744 0.32621,0.94530
C 0.43012,0.90944 0.49488,0.78233 0.50695,0.59030
C 0.52008,0.38144 0.46974,0.11409 0.36814,-0.14669
C 0.26744,-0.40513 0.12550,-0.63375 -0.02370,-0.77783
C -0.16205,-0.91145 -0.29555,-0.96163 -0.39644,-0.91806
C -0.40248,-0.91545 -0.40840,-0.91283 -0.41419,-0.91019 Z" id="meridian_80.04_back"/>
      <path d="M -0.55061,-0.83476
C -0.43198,-0.91301 -0.26548,-0.89834 -0.08742,-0.79388
C 0.10259,-0.68240 0.28877,-0.47868 0.42526,-0.23279
C 0.56043,0.01073 0.63450,0.27333 0.62957,0.49150
C 0.62490,0.69787 0.54991,0.84722 0.42102,0.90705
C 0.42743,0.90408 0.43369,0.90109 0.43981,0.89809
C 0.56629,0.83615 0.63907,0.68612 0.64239,0.48028
C 0.64593,0.26085 0.57025,-0.00267 0.43367,-0.24632
C 0.29840,-0.48764 0.11556,-0.68775 -0.07124,-0.79895
C -0.24811,-0.90423 -0.41397,-0.92112 -0.53311,-0.84604
C -0.53888,-0.84241 -0.54472,-0.83865 -0.55061,-0.83476 Z" id="meridian_80.05_back"/>
      <path d="M -0.69145,-0.72242
C -0.56941,-0.83923 -0.38305,-0.87014 -0.17401,-0.80817
C 0.04753,-0.74251 0.27440,-0.57854 0.45013,-0.35702
C 0.62583,-0.13553 0.73387,0.12266 0.74742,0.35329
C 0.76020,0.57093 0.68773,0.74536 0.54622,0.83764
C 0.55267,0.83343 0.55895,0.82924 0.56505,0.82505
C 0.70337,0.73032 0.77274,0.55495 0.75778,0.33766
C 0.74194,0.10766 0.63306,-0.14870 0.45782,-0.36842
C 0.28435,-0.58591 0.06168,-0.74768 -0.15651,-0.81473
C -0.36468,-0.87870 -0.55122,-0.85103 -0.67492,-0.73789
C -0.68038,-0.73290 -0.68589,-0.72774 -0.69145,-0.72242 Z" id="meridian_80.06_back"/>
      <path d="M -0.82796,-0.56079
C -0.72027,-0.71979 -0.52948,-0.80506 -0.29960,-0.79691
C -0.05805,-0.78834 0.20422,-0.67743 0.42087,-0.49217
C 0.63752,-0.30691 0.78779,-0.06504 0.83376,0.17225
C 0.87750,0.39808 0.82288,0.59979 0.68252,0.73086
C 0.68857,0.72522 0.69454,0.71950 0.70045,0.71371
C 0.83610,0.58058 0.88667,0.37901 0.84068,0.15473
C 0.79253,-0.08001 0.64298,-0.31837 0.42888,-0.50147
C 0.21476,-0.68458 -0.04396,-0.79534 -0.28335,-0.80646
C -0.51205,-0.81709 -0.70333,-0.73583 -0.81379,-0.58116
C -0.81860,-0.57443 -0.82332,-0.56764 -0.82796,-0.56079 Z" id="meridian_80.07_back"/>
      <path d="M -0.94012,-0.34084
C -0.88280,-0.49896 -0.75969,-0.62389 -0.59016,-0.69598
C -0.41704,-0.76959 -0.20562,-0.78380 0.00948,-0.73626
C 0.22546,-0.68854 0.43229,-0.58141 0.59589,-0.43255
C 0.75882,-0.28428 0.86919,-0.10341 0.90895,0.08047
C 0.94789,0.26053 0.91688,0.43316 0.82080,0.57121
C 0.82595,0.56382 0.83099,0.55636 0.83593,0.54883
C 0.94906,0.37652 0.96248,0.15511 0.87305,-0.06433
C 0.77965,-0.29350 0.58269,-0.49944 0.33135,-0.63064
C 0.07965,-0.76202 -0.20273,-0.80599 -0.44502,-0.75160
C -0.67884,-0.69911 -0.85441,-0.55969 -0.93057,-0.36610
C -0.93387,-0.35773 -0.93705,-0.34930 -0.94012,-0.34084 Z" id="meridian_80.08_back"/>
      <path d="M -0.99753,-0.07022
C -0.98508,-0.24704 -0.89828,-0.40940 -0.75113,-0.53109
C -0.60254,-0.65396 -0.40122,-0.72808 -0.18026,-0.74126
C 0.04294,-0.75458 0.27268,-0.70489 0.47044,-0.60054
C 0.66620,-0.49725 0.81891,-0.34655 0.90345,-0.17327
C 0.98717,-0.00165 0.99913,0.18207 0.93741,0.34824
C 0.94073,0.33929 0.94393,0.33029 0.94700,0.32125
C 1.00310,0.15585 0.98717,-0.02543 0.90168,-0.19408
C 0.81535,-0.36441 0.66304,-0.51206 0.46917,-0.61335
C 0.27340,-0.71564 0.04674,-0.76466 -0.17380,-0.75240
C -0.39221,-0.74027 -0.59192,-0.66875 -0.74091,-0.54932
C -0.88844,-0.43106 -0.97786,-0.27256 -0.99511,-0.09876
C -0.99605,-0.08926 -0.99686,-0.07974 -0.99753,-0.07022 Z" id="meridian_80.09_back"/>
      <path d="M -0.97652,0.21544
C -1.01508,0.04063 -0.97790,-0.14140 -0.87100,-0.30113
C -0.76311,-0.46233 -0.59060,-0.59124 -0.38196,-0.66658
C -0.17126,-0.74266 0.06352,-0.75950 0.28291,-0.71427
C 0.50018,-0.66948 0.68931,-0.56650 0.81910,-0.42235
C 0.94771,-0.27951 1.01049,-0.10465 0.99727,0.07387
C 0.99798,0.06423 0.99856,0.05457 0.99899,0.04491
C 1.00691,-0.13124 0.94094,-0.30253 0.81147,-0.44193
C 0.68077,-0.58265 0.49290,-0.68275 0.27806,-0.72612
C 0.06118,-0.76990 -0.17042,-0.75329 -0.37883,-0.67901
C -0.58529,-0.60543 -0.75695,-0.47954 -0.86623,-0.32160
C -0.97448,-0.16516 -1.01533,0.01380 -0.98236,0.18701
C -0.98055,0.19652 -0.97860,0.20599 -0.97652,0.21544 Z" id="meridian_80.11_back"/>
      <path d="M -0.88392,0.46764
C -0.96520,0.31400 -0.97635,0.13350 -0.91555,-0.04495
C -0.85410,-0.22531 -0.72276,-0.39298 -0.54300,-0.52054
C -0.36128,-0.64950 -0.14099,-0.72972 0.08110,-0.74782
C 0.30079,-0.76573 0.50919,-0.72178 0.67223,-0.62318
C 0.83354,-0.52562 0.94109,-0.38022 0.97764,-0.21029
C 0.97568,-0.21940 0.97359,-0.22848 0.97138,-0.23753
C 0.92048,-0.44569 0.76252,-0.61279 0.53500,-0.69915
C 0.30134,-0.78784 0.01598,-0.78317 -0.24995,-0.68633
C -0.51587,-0.58948 -0.73740,-0.40955 -0.85931,-0.19138
C -0.97801,0.02107 -0.99152,0.25061 -0.89664,0.44276
C -0.89252,0.45111 -0.88828,0.45940 -0.88392,0.46764 Z" id="meridian_80.12_back"/>
      <path d="M -0.75250,0.65859
C -0.88563,0.50648 -0.92412,0.29168 -0.85889,0.06475
C -0.79095,-0.17160 -0.61687,-0.39897 -0.38078,-0.55962
C -0.14468,-0.72026 0.13072,-0.79872 0.37551,-0.77516
C 0.61054,-0.75254 0.79622,-0.63789 0.88884,-0.45821
C 0.88488,-0.46590 0.88082,-0.47353 0.87666,-0.48111
C 0.78071,-0.65595 0.59473,-0.76612 0.36148,-0.78623
C 0.11839,-0.80719 -0.15380,-0.72842 -0.38746,-0.56944
C -0.62111,-0.41045 -0.79429,-0.18618 -0.86403,0.04764
C -0.93095,0.27198 -0.89674,0.48542 -0.76933,0.63885
C -0.76381,0.64550 -0.75820,0.65208 -0.75250,0.65859 Z" id="meridian_80.13_back"/>
      <path d="M -0.61328,0.78986
C -0.75646,0.67869 -0.82219,0.49023 -0.79549,0.26734
C -0.76737,0.03264 -0.63936,-0.21870 -0.44344,-0.42373
C -0.24752,-0.62876 -0.00225,-0.76806 0.23093,-0.80681
C 0.45238,-0.84361 0.64363,-0.78651 0.76119,-0.64853
C 0.75607,-0.65454 0.75087,-0.66049 0.74561,-0.66638
C 0.62614,-0.80005 0.43514,-0.85360 0.21527,-0.81504
C -0.01604,-0.77447 -0.25852,-0.63561 -0.45261,-0.43249
C -0.64670,-0.22938 -0.77440,0.01916 -0.80442,0.25207
C -0.83296,0.47346 -0.77079,0.66184 -0.63183,0.77511
C -0.62571,0.78010 -0.61952,0.78502 -0.61328,0.78986 Z" id="meridian_80.14_back"/>
      <path d="M -0.48206,0.87614
C -0.61831,0.80117 -0.69365,0.64043 -0.69150,0.42915
C -0.68920,0.20363 -0.59884,-0.05916 -0.44275,-0.29413
C -0.28665,-0.52909 -0.07942,-0.71424 0.12758,-0.80377
C 0.32152,-0.88765 0.49890,-0.88050 0.62082,-0.78396
C 0.61525,-0.78836 0.60954,-0.79279 0.60367,-0.79723
C 0.48087,-0.89022 0.30404,-0.89473 0.11142,-0.80974
C -0.09396,-0.71912 -0.29911,-0.53479 -0.45401,-0.30163
C -0.60891,-0.06847 -0.69932,0.19208 -0.70326,0.41653
C -0.70696,0.62705 -0.63426,0.78832 -0.50094,0.86548
C -0.49457,0.86917 -0.48828,0.87272 -0.48206,0.87614 Z" id="meridian_80.15_back"/>
      <path d="M -0.36302,0.93178
C -0.48086,0.88587 -0.55258,0.74917 -0.56282,0.55071
C -0.57386,0.33683 -0.51254,0.07018 -0.39383,-0.18396
C -0.27512,-0.43810 -0.10997,-0.65625 0.06114,-0.78505
C 0.21991,-0.90456 0.37077,-0.93730 0.48161,-0.87638
C 0.47586,-0.87955 0.46996,-0.88271 0.46393,-0.88587
C 0.35284,-0.94405 0.20258,-0.90945 0.04479,-0.78927
C -0.12507,-0.65988 -0.28880,-0.44265 -0.40681,-0.19003
C -0.52481,0.06259 -0.58633,0.32757 -0.57654,0.54087
C -0.56745,0.73901 -0.49755,0.87645 -0.38164,0.92431
C -0.37534,0.92691 -0.36914,0.92940 -0.36302,0.93178 Z" id="meridian_80.16_back"/>
      <path d="M -0.25503,0.96693
C -0.34598,0.94294 -0.40473,0.82678 -0.41915,0.64210
C -0.43505,0.43852 -0.39570,0.16964 -0.31074,-0.09847
C -0.22577,-0.36658 -0.10308,-0.60904 0.02717,-0.76631
C 0.14533,-0.90898 0.26026,-0.97011 0.34844,-0.93733
C 0.34264,-0.93949 0.33672,-0.94162 0.33069,-0.94374
C 0.24263,-0.97460 0.12822,-0.91221 0.01073,-0.76910
C -0.11862,-0.61154 -0.24043,-0.36991 -0.32501,-0.10300
C -0.40960,0.16391 -0.44919,0.43159 -0.43420,0.63490
C -0.42058,0.81956 -0.36299,0.93645 -0.27322,0.96195
C -0.26708,0.96370 -0.26101,0.96536 -0.25503,0.96693 Z" id="meridian_80.17_back"/>
      <path d="M -0.15528,0.98787
C -0.21423,0.97861 -0.25391,0.87910 -0.26654,0.70846
C -0.28103,0.51261 -0.25860,0.24055 -0.20489,-0.03932
C -0.15117,-0.31919 -0.07127,-0.58022 0.01470,-0.75679
C 0.08961,-0.91063 0.16332,-0.98838 0.22151,-0.97516
C 0.21561,-0.97650 0.20973,-0.97778 0.20386,-0.97900
C 0.14599,-0.99105 0.07277,-0.91260 -0.00166,-0.75858
C -0.08705,-0.58188 -0.16648,-0.32139 -0.22006,-0.04225
C -0.27364,0.23689 -0.29630,0.50828 -0.28240,0.70405
C -0.27029,0.87468 -0.23131,0.97467 -0.17310,0.98490
C -0.16717,0.98595 -0.16123,0.98694 -0.15528,0.98787 Z" id="meridian_80.18_back"/>
      <path d="M -0.06065,0.99816
C -0.09676,0.99596 -0.11620,0.81686 -0.11203,0.52398
C -0.10739,0.19847 -0.07440,-0.21311 -0.02714,-0.53519
C 0.01538,-0.82497 0.06310,-0.99866 0.09909,-0.99508
C 0.09324,-0.99566 0.08739,-0.99619 0.08153,-0.99667
C 0.04611,-0.99957 -0.00101,-0.82558 -0.04317,-0.53589
C -0.09000,-0.21405 -0.12294,0.19690 -0.12796,0.52210
C -0.13249,0.81485 -0.11368,0.99415 -0.07825,0.99693
C -0.07236,0.99740 -0.06650,0.99780 -0.06065,0.99816 Z" id="meridian_80.19_back"/>
    </g>
    <g id="front" style="opacity:1; fill:url(#LightSpot_front)">
      <path d="M 0.43619,-0.89985
C 0.31022,-0.96091 0.15722,-0.99391 -0.00000,-0.99391
C -0.15722,-0.99391 -0.31022,-0.96091 -0.43619,-0.89985
C -0.44741,-0.89442 -0.45852,-0.88877 -0.46953,-0.88292
C -0.33715,-0.95332 -0.17122,-0.99180 -0.00000,-0.99180
C 0.17122,-0.99180 0.33715,-0.95332 0.46953,-0.88292
C 0.45852,-0.88877 0.44741,-0.89442 0.43619,-0.89985 Z" id="parallel_-40.0_front"/>
      <path d="M 0.69389,-0.72008
C 0.59284,-0.81745 0.44474,-0.89089 0.27231,-0.92911
C 0.09589,-0.96822 -0.09590,-0.96822 -0.27231,-0.92911
C -0.44474,-0.89089 -0.59284,-0.81745 -0.69389,-0.72008
C -0.70042,-0.71379 -0.70687,-0.70740 -0.71323,-0.70093
C -0.61247,-0.80346 -0.46073,-0.88131 -0.28245,-0.92192
C -0.09976,-0.96354 0.09977,-0.96354 0.28246,-0.92192
C 0.46073,-0.88131 0.61247,-0.80346 0.71323,-0.70093
C 0.70687,-0.70740 0.70042,-0.71378 0.69389,-0.72008 Z" id="parallel_-30.0_front"/>
      <path d="M 0.85370,-0.52077
C 0.76567,-0.66508 0.58980,-0.78112 0.36537,-0.84291
C 0.13237,-0.90705 -0.13237,-0.90705 -0.36537,-0.84291
C -0.58980,-0.78112 -0.76567,-0.66508 -0.85370,-0.52077
C -0.85789,-0.51389 -0.86200,-0.50697 -0.86603,-0.49999
C -0.78034,-0.64842 -0.60262,-0.76851 -0.37370,-0.83258
C -0.13576,-0.89918 0.13576,-0.89918 0.37370,-0.83258
C 0.60262,-0.76851 0.78034,-0.64842 0.86603,-0.49999
C 0.86200,-0.50697 0.85789,-0.51389 0.85370,-0.52077 Z" id="parallel_-20.0_front"/>
      <path d="M 0.95139,-0.30798
C 0.90818,-0.44148 0.79364,-0.56199 0.62633,-0.64991
C 0.45121,-0.74194 0.22932,-0.79244 0.00000,-0.79244
C -0.22931,-0.79245 -0.45120,-0.74194 -0.62632,-0.64992
C -0.79363,-0.56200 -0.90818,-0.44148 -0.95139,-0.30798
C -0.95369,-0.30089 -0.95595,-0.29363 -0.95817,-0.28621
C -0.91764,-0.42190 -0.80359,-0.54495 -0.63491,-0.63490
C -0.45822,-0.72912 -0.23298,-0.78095 -0.00000,-0.78095
C 0.23297,-0.78095 0.45821,-0.72912 0.63490,-0.63491
C 0.80359,-0.54496 0.91764,-0.42190 0.95817,-0.28621
C 0.95604,-0.29334 0.95378,-0.30061 0.95139,-0.30798 Z" id="parallel_-10.0_front"/>
      <path d="M 0.99611,-0.08817
C 0.98267,-0.23990 0.87703,-0.38314 0.69979,-0.48978
C 0.51322,-0.60203 0.26187,-0.66498 -0.00000,-0.66498
C -0.26188,-0.66498 -0.51323,-0.60203 -0.69979,-0.48978
C -0.87703,-0.38314 -0.98267,-0.23990 -0.99611,-0.08817
C -0.99674,-0.08095 -0.99732,-0.07358 -0.99782,-0.06606
C -0.98768,-0.21914 -0.88338,-0.36432 -0.70562,-0.47263
C -0.51842,-0.58668 -0.26464,-0.65077 0.00000,-0.65077
C 0.26464,-0.65077 0.51843,-0.58667 0.70563,-0.47262
C 0.88339,-0.36432 0.98768,-0.21914 0.99782,-0.06606
C 0.99732,-0.07358 0.99674,-0.08095 0.99611,-0.08817 Z" id="parallel_0.0_front"/>
      <path d="M 0.99125,0.13197
C 1.01272,-0.02930 0.92417,-0.18895 0.74577,-0.31034
C 0.55705,-0.43874 0.28543,-0.51236 0.00000,-0.51236
C -0.28542,-0.51236 -0.55704,-0.43874 -0.74576,-0.31034
C -0.92417,-0.18895 -1.01272,-0.02930 -0.99125,0.13197
C -0.99030,0.13910 -0.98926,0.14636 -0.98811,0.15374
C -1.01328,-0.00801 -0.92684,-0.16895 -0.74876,-0.29158
C -0.56034,-0.42134 -0.28724,-0.49590 -0.00000,-0.49590
C 0.28724,-0.49590 0.56034,-0.42134 0.74876,-0.29158
C 0.92684,-0.16895 1.01328,-0.00801 0.98811,0.15374
C 0.98922,0.14663 0.99027,0.13937 0.99125,0.13197 Z" id="parallel_10.0_front"/>
      <path d="M 0.93832,0.34575
C 0.98549,0.21774 0.95576,0.08404 0.85419,-0.03251
C 0.74705,-0.15544 0.56719,-0.25103 0.34855,-0.30120
C 0.12440,-0.35264 -0.12440,-0.35264 -0.34855,-0.30120
C -0.56719,-0.25103 -0.74705,-0.15543 -0.85419,-0.03251
C -0.95576,0.08404 -0.98549,0.21774 -0.93832,0.34575
C -0.93571,0.35284 -0.93307,0.35977 -0.93041,0.36653
C -0.98071,0.23884 -0.95345,0.10481 -0.85333,-0.01232
C -0.74777,-0.13580 -0.56842,-0.23208 -0.34962,-0.28269
C -0.12493,-0.33466 0.12493,-0.33466 0.34962,-0.28269
C 0.56842,-0.23208 0.74777,-0.13580 0.85333,-0.01232
C 0.95345,0.10481 0.98071,0.23884 0.93041,0.36653
C 0.93307,0.35977 0.93571,0.35284 0.93832,0.34575 Z" id="parallel_20.0_front"/>
      <path d="M 0.83733,0.54669
C 0.91697,0.42472 0.91407,0.28986 0.82920,0.16907
C 0.74042,0.04270 0.56893,-0.05833 0.35200,-0.11199
C 0.12720,-0.16760 -0.12719,-0.16760 -0.35199,-0.11199
C -0.56893,-0.05833 -0.74042,0.04270 -0.82921,0.16907
C -0.91407,0.28986 -0.91697,0.42473 -0.83733,0.54669
C -0.83305,0.55325 -0.82877,0.55963 -0.82451,0.56584
C -0.90753,0.44488 -0.90763,0.31020 -0.82481,0.18920
C -0.73823,0.06270 -0.56797,-0.03874 -0.35158,-0.09267
C -0.12722,-0.14860 0.12721,-0.14860 0.35157,-0.09268
C 0.56796,-0.03874 0.73823,0.06270 0.82481,0.18920
C 0.90763,0.31020 0.90753,0.44488 0.82451,0.56584
C 0.82895,0.55938 0.83322,0.55300 0.83733,0.54669 Z" id="parallel_30.0_front"/>
      <path d="M 0.68486,0.72868
C 0.79939,0.62104 0.83034,0.49124 0.77039,0.37018
C 0.70785,0.24389 0.55235,0.13906 0.34378,0.08268
C 0.12629,0.02389 -0.12628,0.02388 -0.34377,0.08268
C -0.55235,0.13905 -0.70785,0.24389 -0.77039,0.37017
C -0.83034,0.49124 -0.79939,0.62104 -0.68486,0.72868
C -0.67877,0.73440 -0.67261,0.74005 -0.66638,0.74562
C -0.78462,0.63994 -0.81949,0.51101 -0.76257,0.39011
C -0.70321,0.26400 -0.54977,0.15882 -0.34237,0.10217
C -0.12602,0.04308 0.12601,0.04308 0.34236,0.10217
C 0.54977,0.15881 0.70321,0.26400 0.76257,0.39010
C 0.81949,0.51101 0.78462,0.63994 0.66638,0.74562
C 0.67261,0.74005 0.67877,0.73440 0.68486,0.72868 Z" id="parallel_40.0_front"/>
      <path d="M 0.46334,0.88618
C 0.59341,0.81817 0.67047,0.72430 0.67795,0.62483
C 0.68548,0.52461 0.62180,0.42677 0.50075,0.35272
C 0.37222,0.27410 0.19051,0.22930 0.00001,0.22930
C -0.19049,0.22930 -0.37221,0.27410 -0.50074,0.35272
C -0.62179,0.42677 -0.68548,0.52461 -0.67795,0.62483
C -0.67047,0.72430 -0.59341,0.81817 -0.46334,0.88618
C -0.45400,0.89107 -0.44457,0.89580 -0.43508,0.90039
C -0.56945,0.83546 -0.65170,0.74320 -0.66354,0.64422
C -0.67542,0.54483 -0.61535,0.44692 -0.49675,0.37248
C -0.37058,0.29330 -0.18982,0.24799 -0.00001,0.24799
C 0.18981,0.24799 0.37058,0.29330 0.49675,0.37248
C 0.61535,0.44691 0.67543,0.54483 0.66354,0.64422
C 0.65170,0.74320 0.56945,0.83546 0.43508,0.90039
C 0.44457,0.89580 0.45399,0.89107 0.46334,0.88618 Z" id="parallel_50.0_front"/>
      <path d="M 0.02230,0.99950
C 0.18746,0.99568 0.34006,0.94981 0.43549,0.87534
C 0.52652,0.80430 0.55595,0.71468 0.51596,0.63055
C 0.47511,0.54461 0.36611,0.47341 0.21932,0.43686
C 0.06492,0.39842 -0.11341,0.40274 -0.26111,0.44851
C -0.40055,0.49172 -0.49749,0.56718 -0.52530,0.65406
C -0.55264,0.73950 -0.51033,0.82728 -0.40959,0.89394
C -0.30325,0.96429 -0.14359,1.00333 0.02230,0.99950 Z
M 0.02167,0.99896
C -0.13937,1.00268 -0.29436,0.96483 -0.39759,0.89661
C -0.49543,0.83196 -0.53649,0.74679 -0.50988,0.66392
C -0.48284,0.57973 -0.38878,0.50662 -0.25350,0.46474
C -0.11014,0.42036 0.06297,0.41616 0.21285,0.45342
C 0.35522,0.48882 0.46098,0.55776 0.50074,0.64099
C 0.53972,0.72262 0.51120,0.80961 0.42276,0.87856
C 0.33014,0.95077 0.18200,0.99526 0.02167,0.99896 Z" id="parallel_60.0_front"/>
      <path d="M 0.01566,0.97999
C 0.13013,0.97734 0.23588,0.94582 0.30195,0.89470
C 0.36553,0.84551 0.38562,0.78340 0.35681,0.72531
C 0.32789,0.66698 0.25270,0.61877 0.15183,0.59395
C 0.04505,0.56766 -0.07823,0.57058 -0.18044,0.60182
C -0.27683,0.63128 -0.34404,0.68273 -0.36374,0.74208
C -0.38331,0.80100 -0.35403,0.86166 -0.28374,0.90764
C -0.21000,0.95590 -0.09932,0.98265 0.01566,0.97999 Z
M 0.01495,0.97629
C -0.09474,0.97883 -0.20033,0.95332 -0.27065,0.90730
C -0.33751,0.86355 -0.36542,0.80586 -0.34689,0.74980
C -0.32825,0.69343 -0.26459,0.64450 -0.17317,0.61635
C -0.07575,0.58634 0.04200,0.58337 0.14409,0.60833
C 0.24064,0.63194 0.31263,0.67798 0.34025,0.73371
C 0.36766,0.78901 0.34853,0.84812 0.28803,0.89495
C 0.22504,0.94370 0.12416,0.97376 0.01495,0.97629 Z" id="parallel_70.0_front"/>
      <path d="M 0.00829,0.92861
C 0.07786,0.92698 0.14040,0.90512 0.17194,0.87143
C 0.20198,0.83935 0.19958,0.80113 0.16558,0.77024
C 0.12946,0.73742 0.06324,0.71788 -0.00717,0.71930
C -0.07806,0.72073 -0.14175,0.74318 -0.17305,0.77770
C -0.20233,0.80999 -0.19902,0.84820 -0.16428,0.87885
C -0.12764,0.91119 -0.06161,0.93024 0.00829,0.92861 Z
M 0.00752,0.92171
C -0.05580,0.92319 -0.11563,0.90594 -0.14882,0.87665
C -0.18030,0.84888 -0.18328,0.81426 -0.15671,0.78502
C -0.12833,0.75378 -0.07063,0.73347 -0.00642,0.73219
C 0.05727,0.73092 0.11717,0.74857 0.14990,0.77823
C 0.18077,0.80621 0.18299,0.84085 0.15577,0.86992
C 0.12721,0.90043 0.07055,0.92024 0.00752,0.92171 Z" id="parallel_80.0_front"/>
      <path d="M 0.01432,0.99990
C 0.00216,1.00007 -0.01379,0.82651 -0.02798,0.53896
C -0.04416,0.21117 -0.05532,-0.20868 -0.05657,-0.53684
C -0.05767,-0.82466 -0.05096,-0.99877 -0.03882,-0.99925
C -0.03300,-0.99947 -0.02715,-0.99965 -0.02128,-0.99977
C -0.03284,-0.99953 -0.03899,-0.82544 -0.03758,-0.53750
C -0.03596,-0.20930 -0.02480,0.21068 -0.00898,0.53855
C 0.00490,0.82627 0.02030,0.99986 0.03186,0.99949
C 0.02601,0.99968 0.02017,0.99981 0.01432,0.99990 Z" id="meridian_80.00_front"/>
      <path d="M 0.10752,0.99420
C 0.06602,0.99869 0.01434,0.91699 -0.03805,0.76382
C -0.10064,0.58081 -0.15865,0.31214 -0.19718,0.02663
C -0.23571,-0.25887 -0.25100,-0.53331 -0.23917,-0.72637
C -0.22927,-0.88797 -0.20109,-0.98046 -0.15988,-0.98714
C -0.15402,-0.98809 -0.14815,-0.98898 -0.14228,-0.98983
C -0.18323,-0.98394 -0.21118,-0.89202 -0.22091,-0.73070
C -0.23257,-0.53758 -0.21710,-0.26236 -0.17844,0.02406
C -0.13979,0.31048 -0.08175,0.57994 -0.01932,0.76308
C 0.03283,0.91607 0.08415,0.99731 0.12520,0.99213
C 0.11929,0.99288 0.11339,0.99357 0.10752,0.99420 Z" id="meridian_80.01_front"/>
      <path d="M 0.20432,0.97890
C 0.13083,0.99424 0.03814,0.92147 -0.05609,0.77424
C -0.16364,0.60622 -0.26396,0.35572 -0.33252,0.08384
C -0.40107,-0.18804 -0.43152,-0.45615 -0.41650,-0.65508
C -0.40334,-0.82938 -0.35624,-0.93740 -0.28427,-0.95874
C -0.27839,-0.96049 -0.27248,-0.96218 -0.26657,-0.96382
C -0.33876,-0.94385 -0.38606,-0.83654 -0.39932,-0.66227
C -0.41447,-0.46311 -0.38387,-0.19380 -0.31497,0.07942
C -0.24608,0.35263 -0.14533,0.60425 -0.03756,0.77242
C 0.05675,0.91957 0.14928,0.99163 0.22231,0.97498
C 0.21633,0.97634 0.21033,0.97765 0.20432,0.97890 Z" id="meridian_80.02_front"/>
      <path d="M 0.30780,0.95145
C 0.20605,0.98437 0.07518,0.92897 -0.05913,0.79599
C -0.20569,0.65087 -0.34421,0.42539 -0.44262,0.17166
C -0.54102,-0.08208 -0.59075,-0.34200 -0.58035,-0.54799
C -0.57083,-0.73675 -0.51153,-0.86590 -0.41419,-0.91019
C -0.40820,-0.91292 -0.40228,-0.91554 -0.39644,-0.91806
C -0.49478,-0.87559 -0.55496,-0.74715 -0.56494,-0.55807
C -0.57583,-0.35151 -0.52594,-0.08991 -0.42687,0.16555
C -0.32779,0.42102 -0.18825,0.64786 -0.04094,0.79305
C 0.09392,0.92596 0.22495,0.98024 0.32621,0.94530
C 0.31999,0.94744 0.31385,0.94949 0.30780,0.95145 Z" id="meridian_80.03_front"/>
      <path d="M 0.42102,0.90705
C 0.29896,0.96371 0.13758,0.93586 -0.03135,0.82888
C -0.21146,0.71481 -0.38573,0.51992 -0.51539,0.28748
C -0.64505,0.05504 -0.71932,-0.19563 -0.72175,-0.40880
C -0.72403,-0.60873 -0.66294,-0.76067 -0.55061,-0.83476
C -0.54492,-0.83851 -0.53909,-0.84228 -0.53311,-0.84604
C -0.64752,-0.77395 -0.71031,-0.62241 -0.70885,-0.42161
C -0.70728,-0.20735 -0.63270,0.04557 -0.50186,0.28009
C -0.37102,0.51460 -0.19499,0.71089 -0.01350,0.82474
C 0.15653,0.93140 0.31840,0.95755 0.43981,0.89809
C 0.43369,0.90109 0.42743,0.90408 0.42102,0.90705 Z" id="meridian_80.04_front"/>
      <path d="M 0.54622,0.83764
C 0.41452,0.92352 0.23278,0.93183 0.03650,0.86085
C -0.16940,0.78639 -0.37538,0.63043 -0.53733,0.42630
C -0.69928,0.22216 -0.80431,-0.01389 -0.82999,-0.23134
C -0.85447,-0.43861 -0.80504,-0.61370 -0.69145,-0.72242
C -0.68589,-0.72774 -0.68038,-0.73290 -0.67492,-0.73789
C -0.79184,-0.63095 -0.84383,-0.45564 -0.82045,-0.24680
C -0.79591,-0.02758 -0.69027,0.21128 -0.52650,0.41771
C -0.36274,0.62413 -0.15416,0.78132 0.05373,0.85508
C 0.25178,0.92534 0.43432,0.91459 0.56505,0.82505
C 0.55870,0.82940 0.55242,0.83360 0.54622,0.83764 Z" id="meridian_80.05_front"/>
      <path d="M 0.68252,0.73086
C 0.55515,0.84982 0.36656,0.90174 0.15308,0.87655
C -0.06824,0.85044 -0.29980,0.74341 -0.49383,0.57749
C -0.68786,0.41157 -0.82953,0.19944 -0.88969,-0.01514
C -0.94771,-0.22213 -0.92570,-0.41649 -0.82796,-0.56079
C -0.82332,-0.56764 -0.81860,-0.57443 -0.81379,-0.58116
C -0.91614,-0.43783 -0.94139,-0.24220 -0.88449,-0.03277
C -0.82545,0.18448 -0.68254,0.39996 -0.48585,0.56815
C -0.28915,0.73635 -0.05410,0.84409 0.16969,0.86868
C 0.38541,0.89238 0.57475,0.83707 0.70045,0.71371
C 0.69454,0.71950 0.68857,0.72522 0.68252,0.73086 Z" id="meridian_80.06_front"/>
      <path d="M 0.82080,0.57121
C 0.71479,0.72355 0.53653,0.82379 0.31976,0.85289
C 0.09698,0.88280 -0.15039,0.83541 -0.37297,0.72012
C -0.59556,0.60483 -0.77699,0.43014 -0.88110,0.23092
C -0.98241,0.03708 -1.00338,-0.16635 -0.94012,-0.34084
C -0.93705,-0.34930 -0.93387,-0.35773 -0.93057,-0.36610
C -0.99943,-0.19108 -0.98182,0.01512 -0.88110,0.21237
C -0.77758,0.41507 -0.59400,0.59325 -0.36791,0.71034
C -0.14182,0.82744 0.10962,0.87459 0.33491,0.84218
C 0.55413,0.81064 0.73271,0.70606 0.83593,0.54883
C 0.83099,0.55636 0.82595,0.56382 0.82080,0.57121 Z" id="meridian_80.07_front"/>
      <path d="M 0.93741,0.34824
C 0.87075,0.52766 0.72255,0.67489 0.52042,0.76238
C 0.31351,0.85195 0.06472,0.87260 -0.17739,0.82024
C -0.41949,0.76788 -0.63752,0.64628 -0.78893,0.47922
C -0.93685,0.31602 -1.01097,0.12072 -0.99753,-0.07022
C -0.99686,-0.07974 -0.99605,-0.08926 -0.99511,-0.09876
C -1.01430,0.09456 -0.94295,0.29396 -0.79472,0.46107
C -0.64292,0.63220 -0.42159,0.75698 -0.17523,0.81026
C 0.07114,0.86354 0.32424,0.84136 0.53319,0.74825
C 0.73722,0.65731 0.88459,0.50522 0.94700,0.32125
C 0.94393,0.33029 0.94073,0.33929 0.93741,0.34824 Z" id="meridian_80.08_front"/>
      <path d="M 0.99727,0.07387
C 0.98305,0.26586 0.88187,0.44955 0.71252,0.59074
C 0.53927,0.73518 0.30687,0.82498 0.06044,0.84265
C -0.18600,0.86033 -0.42884,0.80461 -0.62092,0.68638
C -0.80869,0.57080 -0.93504,0.40343 -0.97652,0.21544
C -0.97860,0.20599 -0.98055,0.19652 -0.98236,0.18701
C -0.94580,0.37903 -0.82098,0.55124 -0.63176,0.67059
C -0.43812,0.79273 -0.19114,0.85063 0.05972,0.83264
C 0.31058,0.81465 0.54677,0.72209 0.72099,0.57357
C 0.89124,0.42844 0.99021,0.24018 0.99899,0.04491
C 0.99856,0.05457 0.99798,0.06423 0.99727,0.07387 Z" id="meridian_80.09_front"/>
      <path d="M 0.97764,-0.21029
C 1.01742,-0.02537 0.97054,0.17647 0.84576,0.35732
C 0.71785,0.54270 0.51720,0.69278 0.28331,0.77795
C 0.04941,0.86313 -0.20075,0.87723 -0.41792,0.81752
C -0.62977,0.75926 -0.79547,0.63483 -0.88392,0.46764
C -0.88828,0.45940 -0.89252,0.45111 -0.89664,0.44276
C -0.81170,0.61477 -0.64622,0.74389 -0.43214,0.80511
C -0.21261,0.86790 0.04187,0.85467 0.27970,0.76805
C 0.51754,0.68144 0.72093,0.52792 0.84868,0.33867
C 0.97325,0.15412 1.01695,-0.05118 0.97138,-0.23753
C 0.97359,-0.22848 0.97568,-0.21940 0.97764,-0.21029 Z" id="meridian_80.10_front"/>
      <path d="M 0.88884,-0.45821
C 0.97162,-0.29764 0.97390,-0.09700 0.89518,0.10538
C 0.81396,0.31417 0.65250,0.50948 0.44346,0.65172
C 0.23448,0.79392 -0.00640,0.87242 -0.23037,0.87137
C -0.44761,0.87036 -0.63348,0.79458 -0.75250,0.65859
C -0.75820,0.65208 -0.76381,0.64550 -0.76933,0.63885
C -0.65252,0.77952 -0.46611,0.85917 -0.24654,0.86216
C -0.01997,0.86525 0.22480,0.78647 0.43693,0.64213
C 0.64905,0.49780 0.81218,0.29903 0.89248,0.08714
C 0.97029,-0.11819 0.96462,-0.32083 0.87666,-0.48111
C 0.88082,-0.47353 0.88488,-0.46590 0.88884,-0.45821 Z" id="meridian_80.11_front"/>
      <path d="M 0.76119,-0.64853
C 0.86914,-0.52182 0.90691,-0.33630 0.86709,-0.12794
C 0.82558,0.08923 0.70294,0.31472 0.52484,0.50116
C 0.34668,0.68768 0.12692,0.82057 -0.08824,0.87196
C -0.29465,0.92127 -0.48177,0.89198 -0.61328,0.78986
C -0.61955,0.78500 -0.62573,0.78008 -0.63183,0.77511
C -0.50161,0.88126 -0.31370,0.91346 -0.10529,0.86525
C 0.11208,0.81497 0.33486,0.68111 0.51524,0.49234
C 0.69562,0.30357 0.81922,0.07495 0.85958,-0.14448
C 0.89827,-0.35486 0.85757,-0.54112 0.74561,-0.66638
C 0.75085,-0.66052 0.75605,-0.65457 0.76119,-0.64853 Z" id="meridian_80.12_front"/>
      <path d="M 0.62082,-0.78396
C 0.73568,-0.69299 0.79280,-0.52938 0.78086,-0.32519
C 0.76825,-0.10942 0.67953,0.13471 0.53396,0.35399
C 0.38824,0.57351 0.19742,0.75026 0.00319,0.84571
C -0.18053,0.93600 -0.35361,0.94681 -0.48206,0.87614
C -0.48851,0.87259 -0.49480,0.86904 -0.50094,0.86548
C -0.37330,0.93936 -0.19960,0.93061 -0.01448,0.84086
C 0.18133,0.74592 0.37424,0.56798 0.52143,0.34643
C 0.66862,0.12488 0.75789,-0.12192 0.76952,-0.33922
C 0.78051,-0.54467 0.72126,-0.70820 0.60367,-0.79723
C 0.60954,-0.79279 0.61526,-0.78836 0.62082,-0.78396 Z" id="meridian_80.13_front"/>
      <path d="M 0.48161,-0.87638
C 0.58795,-0.81795 0.64965,-0.67758 0.65443,-0.48287
C 0.65959,-0.27298 0.59823,-0.01703 0.48421,0.22688
C 0.37030,0.47052 0.21353,0.68146 0.04943,0.81198
C -0.10289,0.93311 -0.25002,0.97581 -0.36302,0.93178
C -0.36914,0.92940 -0.37534,0.92691 -0.38164,0.92431
C -0.26914,0.97076 -0.12161,0.92939 0.03159,0.80832
C 0.19684,0.67772 0.35503,0.46518 0.46981,0.21946
C 0.58460,-0.02627 0.64607,-0.28399 0.64017,-0.49453
C 0.63471,-0.68972 0.57175,-0.82941 0.46393,-0.88587
C 0.46975,-0.88282 0.47565,-0.87966 0.48161,-0.87638 Z" id="meridian_80.14_front"/>
      <path d="M 0.34844,-0.93733
C 0.43389,-0.90557 0.48813,-0.78785 0.50058,-0.60678
C 0.51453,-0.40398 0.47491,-0.13890 0.39110,0.12516
C 0.30751,0.38853 0.18750,0.62719 0.05963,0.78447
C -0.05481,0.92523 -0.16690,0.99018 -0.25503,0.96693
C -0.26101,0.96536 -0.26707,0.96370 -0.27322,0.96195
C -0.18510,0.98698 -0.07230,0.92211 0.04303,0.77991
C 0.17093,0.62219 0.29106,0.38279 0.37473,0.11876
C 0.45841,-0.14527 0.49809,-0.41017 0.48437,-0.61277
C 0.47200,-0.79544 0.41715,-0.91344 0.33069,-0.94374
C 0.33672,-0.94163 0.34264,-0.93949 0.34844,-0.93733 Z" id="meridian_80.15_front"/>
      <path d="M 0.22151,-0.97516
C 0.27855,-0.96220 0.31681,-0.86270 0.32904,-0.69508
C 0.34332,-0.49936 0.32088,-0.22796 0.26730,0.05124
C 0.21369,0.33054 0.13402,0.59105 0.04827,0.76760
C -0.02514,0.91872 -0.09750,0.99695 -0.15528,0.98787
C -0.16123,0.98694 -0.16717,0.98595 -0.17310,0.98490
C -0.11559,0.99501 -0.04323,0.91683 0.03032,0.76486
C 0.11582,0.58819 0.19540,0.32740 0.24906,0.04782
C 0.30272,-0.23176 0.32536,-0.50348 0.31135,-0.69926
C 0.29930,-0.86767 0.26102,-0.96710 0.20386,-0.97900
C 0.20975,-0.97777 0.21564,-0.97649 0.22151,-0.97516 Z" id="meridian_80.16_front"/>
      <path d="M 0.09909,-0.99508
C 0.13456,-0.99155 0.15383,-0.81635 0.15016,-0.52944
C 0.14595,-0.19992 0.11227,0.22042 0.06394,0.54645
C 0.02186,0.83037 -0.02507,1.00032 -0.06065,0.99816
C -0.06652,0.99780 -0.07239,0.99739 -0.07825,0.99693
C -0.04326,0.99968 0.00319,0.82984 0.04503,0.54562
C 0.09306,0.21927 0.12680,-0.20171 0.13135,-0.53154
C 0.13532,-0.81876 0.11651,-0.99381 0.08153,-0.99667
C 0.08739,-0.99619 0.09324,-0.99566 0.09909,-0.99508 Z" id="meridian_80.17_front"/>
    </g>
  </g>
</svg>
